<svg width="70" height="18" viewBox="0 0 70 18" fill="none" xmlns="http://www.w3.org/2000/svg">
<g clip-path="url(#clip0_36_2)">
<mask id="mask0_36_2" style="mask-type:luminance" maskUnits="userSpaceOnUse" x="0" y="0" width="70" height="18">
<path d="M70 0H0V18H70V0Z" fill="white"/>
</mask>
<g mask="url(#mask0_36_2)">
<path fill-rule="evenodd" clip-rule="evenodd" d="M7.58483 0.497337C15.338 1.32996 15.338 6.26515 14.8889 8.76303C14.6346 10.2315 13.3174 17.5586 4.53143 17.5737C1.05896 17.5737 0.535091 17.165 0.714701 16.3778C0.801097 16.0185 2.00182 11.481 2.86781 8.20857C3.35207 6.37855 3.73165 4.94413 3.75313 4.85727C4.01451 3.79975 5.0346 3.95725 5.24433 3.98964C5.26278 3.99249 5.27497 3.99436 5.27981 3.99436C5.30975 4.0095 5.32472 4.03978 5.32472 4.07005C5.24665 4.74682 4.29613 9.94495 3.8104 12.6013C3.64421 13.5102 3.53242 14.1215 3.52861 14.1524C3.3939 15.0456 3.52861 15.1364 4.62125 15.1364C10.0245 15.1364 11.9853 11.3669 12.5241 8.33914C13.4371 3.10119 8.37809 1.54191 1.29844 2.17773C1.29145 2.17773 1.27895 2.17813 1.26199 2.1787C1.13363 2.18295 0.750075 2.19561 0.565026 2.10204C0.295609 1.98093 0.071096 1.64787 0.0112257 1.46621C-0.0037419 1.40565 -0.0037419 1.32996 0.0112257 1.29968C0.0261932 1.26941 0.0411609 1.23913 0.071096 1.23913C2.36114 0.830386 5.53426 0.285396 7.58483 0.497337ZM32.3262 14.2054C32.3299 14.2092 32.3338 14.2129 32.3412 14.2129C32.3861 14.2432 32.3562 14.3189 32.3112 14.3643C31.8174 16.1052 30.2756 17.3012 28.4944 17.3466C26.9978 17.4224 25.4861 16.5594 24.8424 15.2424C24.5879 14.7428 24.4383 14.2129 24.3784 13.562C24.1539 13.668 23.9145 13.7588 23.675 13.8345C23.3606 14.7125 22.8218 15.5148 22.0884 16.0751C20.5018 17.2559 18.3615 17.6192 16.4455 16.5443C14.0957 14.8942 14.3801 11.5788 16.0266 9.62593C17.6729 7.67305 20.6964 7.35514 22.2081 8.30887C23.2409 8.97498 23.7797 10.1406 23.9295 11.3366C24.1539 11.1852 24.3484 10.9884 24.573 10.7159C24.7825 10.4586 25.2016 9.83788 25.2016 9.83788C25.4561 9.45942 25.7404 9.11122 26.0848 8.80845C26.7732 8.18776 27.6564 7.88499 28.5544 7.88499C29.3327 7.88499 30.111 8.11207 30.7996 8.58138C31.0241 8.71762 31.0839 8.80845 31.0091 8.92956C30.9192 9.11122 30.7996 9.27775 30.6797 9.42913C30.4404 9.73191 30.1859 9.62593 30.0212 9.55024C29.9913 9.53511 29.9613 9.51997 29.9464 9.51997C29.183 9.24747 28.5544 9.30802 27.9107 9.70162C26.5187 10.5645 26.2943 12.2298 26.5637 13.5166C26.8331 14.8185 27.5515 15.2727 28.1053 15.4089C29.1381 15.6663 30.5001 15.1061 31.3683 14.0767C31.6378 13.7588 32.0269 13.9707 32.3112 14.1978C32.3188 14.1978 32.3225 14.2016 32.3262 14.2054ZM17.7628 14.3492C18.8554 15.1364 20.6065 14.7277 21.4597 13.456C22.0585 12.5628 22.5972 11.0792 21.6843 9.94384C20.6365 8.64192 18.7507 9.08094 17.6729 10.292C16.6103 11.5031 16.5953 13.5014 17.7628 14.3492ZM46.1263 8.29374C44.6146 7.33999 41.5911 7.65792 39.9446 9.6108C38.927 10.8067 38.433 12.5326 38.7474 14.0616C38.1785 14.5914 37.505 14.9547 36.6668 14.7731C36.2177 14.6822 35.7089 14.1675 35.8735 13.35C35.9035 13.1986 36.5471 9.68649 37.1608 6.2803C37.1982 6.2803 37.2393 6.27651 37.2805 6.27273C37.3217 6.26895 37.3628 6.26515 37.4002 6.26515C38.8521 6.17433 42.0402 5.93211 42.4743 5.68989C42.9831 5.40225 42.9532 4.94809 42.9082 4.76643C42.8934 4.72102 42.8634 4.69074 42.8185 4.69074C42.4443 4.6756 40.5583 4.59991 39.1365 4.55449C38.7324 4.53936 38.1337 4.53936 37.4601 4.53936C37.7595 2.8741 38.0139 1.39052 38.1337 0.57303C38.1487 0.542752 38.1187 0.497337 38.0887 0.497337C37.9989 0.482197 37.9091 0.467059 37.8043 0.467059C37.3104 0.467059 36.7717 0.739554 36.6219 1.23913C36.6219 1.23913 36.2177 2.66217 35.7089 4.53936C34.8803 4.53936 34.1065 4.54626 33.6034 4.55073C33.3612 4.55289 33.1819 4.55449 33.0895 4.55449C33.0446 4.55449 33.0148 4.58476 32.9998 4.63018C32.9399 4.91782 32.7902 5.93211 33.389 6.21975C33.7631 6.4014 34.4366 6.43168 35.1999 6.4014C34.4066 9.33829 33.5686 12.6082 33.4487 13.562C33.3141 14.6217 33.6583 15.6813 34.3618 16.3323C35.4694 17.3769 37.2805 17.5889 38.5528 16.8017C38.9718 16.5443 39.3461 16.2567 39.6753 15.9539C39.8699 16.1507 40.0794 16.3475 40.319 16.514C42.2348 17.5889 44.3751 17.2256 45.9617 16.0448C46.9945 15.2576 47.6529 13.9556 47.8027 12.6839C48.0571 11.0641 47.5482 9.2172 46.1263 8.29374ZM45.348 13.456C44.4948 14.7277 42.7436 15.1364 41.651 14.3492C40.4836 13.5014 40.4986 11.5031 41.5612 10.292C42.6389 9.08094 44.5247 8.64192 45.5725 9.94384C46.4855 11.0792 45.9467 12.5628 45.348 13.456ZM57.2922 3.99436L57.2023 4.13061C56.8731 4.72102 56.7982 5.44767 57.337 5.84127C57.816 6.15919 58.4147 6.0078 58.7889 5.72017C59.0434 5.52336 59.208 5.20545 59.2529 4.85727C59.2979 4.49394 59.223 3.97923 58.8188 3.72187C58.6542 3.63103 58.4746 3.58561 58.295 3.58561C58.0106 3.58561 57.7113 3.67645 57.4718 3.82783C57.4119 3.87325 57.3519 3.93381 57.2922 3.99436ZM68.1137 16.0448C69.1615 15.2576 69.805 13.9556 69.9548 12.6839C70.1643 11.0641 69.6553 9.2172 68.2484 8.29374C67.1708 7.6125 65.3147 7.58221 63.7432 8.33914C63.9926 6.96768 64.4466 3.85479 64.7174 1.99723C64.8203 1.29175 64.8968 0.767346 64.9256 0.588168C64.9256 0.557908 64.9256 0.542748 64.9106 0.527613C64.8956 0.512475 64.8807 0.497337 64.8657 0.497337C64.7759 0.482197 64.6861 0.467059 64.5964 0.467059C64.1023 0.467059 63.5636 0.739554 63.4139 1.23913C63.4139 1.23913 60.5401 13.0018 60.4354 13.562C59.7618 14.6065 58.9535 15.0153 58.0855 14.7428C57.3794 14.5196 57.4105 13.9602 57.4261 13.6823L57.4268 13.668C57.4433 13.4274 57.6798 12.0099 57.9125 10.6154C58.1046 9.46479 58.294 8.32987 58.3548 7.88499C58.3698 7.82443 58.3248 7.76388 58.2651 7.74874C58.1154 7.71847 57.9507 7.70332 57.786 7.70332C57.2622 7.70332 56.7085 7.90012 56.3791 8.71762C56.3641 8.74789 55.4212 12.0935 55.2416 12.8202C55.2341 12.8656 55.2229 12.911 55.2116 12.9564C55.2005 13.0018 55.1892 13.0473 55.1816 13.0927C54.4782 14.1675 53.4005 15.0909 51.8439 14.7579C51.395 14.652 50.901 14.3189 51.0506 13.3349C51.0955 13.0775 52.5175 4.73616 52.9366 2.07175C52.9366 2.02633 52.9216 2.0112 52.8917 1.99606C52.8018 1.98093 52.6971 1.96578 52.6072 1.96578C52.1134 1.96578 51.5746 2.23828 51.4248 2.73786C51.4248 2.73786 49.1498 11.1852 48.6558 13.562C48.4314 14.6217 48.581 15.636 49.509 16.4687C50.3622 17.2407 52.0085 17.4828 53.3855 16.9076C54.1788 16.5746 54.8374 16.0145 55.3015 15.5451C55.9002 16.7562 57.337 17.5434 58.6542 17.2256C59.672 16.9833 60.4503 16.2416 60.9592 15.6057C61.1537 15.8933 61.3933 16.1658 61.6478 16.3626C62.8152 17.3163 64.4915 17.4828 65.9883 17.0288C66.7517 16.8623 67.485 16.514 68.1137 16.0448ZM63.7132 10.4737C64.7759 9.2626 66.6768 8.80845 67.7245 10.1255C68.6375 11.2609 68.0837 12.7596 67.485 13.6377C66.6318 14.9093 64.6861 15.3786 63.5935 14.5914C62.4111 13.7436 62.6506 11.6848 63.7132 10.4737Z" fill="white"/>
</g>
</g>
<defs>
<clipPath id="clip0_36_2">
<rect width="70" height="18" fill="white"/>
</clipPath>
</defs>
</svg>
