<svg width="148" height="143" viewBox="0 0 148 143" fill="none" xmlns="http://www.w3.org/2000/svg">
<g filter="url(#filter0_i_165_192)">
<ellipse cx="74" cy="71.5" rx="74" ry="71.5" fill="#FFCD4D"/>
</g>
<rect x="39.5" y="27.1061" width="17" height="22" rx="8.5" fill="#001C38" stroke="#001C38"/>
<rect x="68.5" y="59.1062" width="11" height="21" rx="5.5" fill="#001C38" stroke="#001C38"/>
<rect x="49" y="26.6061" width="9" height="9" rx="4.5" fill="#FFCD4D"/>
<path d="M31.906 26.2123C31.906 26.2123 35 19.9893 43.746 17.2226C52.4919 14.4558 58.6021 17.7671 58.6021 17.7671" stroke="#001C38" stroke-width="3" stroke-linecap="round"/>
<path d="M116.696 18.2123C116.696 18.2123 113.602 11.9893 104.856 9.22258C96.1101 6.45582 90 9.76712 90 9.76712" stroke="#001C38" stroke-width="3" stroke-linecap="round"/>
<rect x="92.5" y="27.1061" width="17" height="22" rx="8.5" fill="#001C38" stroke="#001C38"/>
<rect x="102" y="26.6061" width="9" height="9" rx="4.5" fill="#FFCD4D"/>
<defs>
<filter id="filter0_i_165_192" x="0" y="0" width="148" height="147" filterUnits="userSpaceOnUse" color-interpolation-filters="sRGB">
<feFlood flood-opacity="0" result="BackgroundImageFix"/>
<feBlend mode="normal" in="SourceGraphic" in2="BackgroundImageFix" result="shape"/>
<feColorMatrix in="SourceAlpha" type="matrix" values="0 0 0 0 0 0 0 0 0 0 0 0 0 0 0 0 0 0 127 0" result="hardAlpha"/>
<feOffset dy="4"/>
<feGaussianBlur stdDeviation="9"/>
<feComposite in2="hardAlpha" operator="arithmetic" k2="-1" k3="1"/>
<feColorMatrix type="matrix" values="0 0 0 0 0.975962 0 0 0 0 0.487981 0 0 0 0 0 0 0 0 0.74 0"/>
<feBlend mode="normal" in2="shape" result="effect1_innerShadow_165_192"/>
</filter>
</defs>
</svg>
